<mxfile host="app.diagrams.net" modified="2020-11-04T19:33:44.897Z" agent="5.0 (Windows NT 10.0; Win64; x64) AppleWebKit/537.36 (KHTML, like Gecko) Chrome/86.0.4240.111 Safari/537.36" etag="Pxm_dKEd_SE8hNmqvyiP" version="13.9.0" type="github">
  <diagram id="vL_EnNJz-udaRHQfMP_Z" name="Page-1">
    <mxGraphModel dx="1038" dy="523" grid="1" gridSize="10" guides="1" tooltips="1" connect="1" arrows="1" fold="1" page="1" pageScale="1" pageWidth="827" pageHeight="1169" math="0" shadow="0">
      <root>
        <mxCell id="0" />
        <mxCell id="1" parent="0" />
        <mxCell id="WP8NB6TWrdv5akPsZ2qc-1" value="&lt;font style=&quot;line-height: 140% ; font-size: 22px&quot; color=&quot;#ffff00&quot;&gt;&lt;b&gt;Batmobile&lt;/b&gt;&lt;/font&gt;" style="rounded=0;whiteSpace=wrap;html=1;strokeColor=#36393d;fillColor=#000000;" parent="1" vertex="1">
          <mxGeometry x="150" y="440" width="140" height="140" as="geometry" />
        </mxCell>
        <mxCell id="WP8NB6TWrdv5akPsZ2qc-4" value="&lt;b&gt;&lt;font style=&quot;font-size: 52px&quot;&gt;Batmobile Class Diagram&lt;/font&gt;&lt;/b&gt;" style="text;html=1;align=center;verticalAlign=middle;whiteSpace=wrap;rounded=0;" parent="1" vertex="1">
          <mxGeometry x="50" y="40" width="740" height="110" as="geometry" />
        </mxCell>
        <mxCell id="WP8NB6TWrdv5akPsZ2qc-9" style="edgeStyle=orthogonalEdgeStyle;rounded=0;orthogonalLoop=1;jettySize=auto;html=1;entryX=-0.003;entryY=0.36;entryDx=0;entryDy=0;entryPerimeter=0;" parent="1" source="WP8NB6TWrdv5akPsZ2qc-5" target="WP8NB6TWrdv5akPsZ2qc-7" edge="1">
          <mxGeometry relative="1" as="geometry">
            <Array as="points">
              <mxPoint x="480" y="280" />
              <mxPoint x="480" y="350" />
            </Array>
          </mxGeometry>
        </mxCell>
        <mxCell id="WP8NB6TWrdv5akPsZ2qc-11" style="edgeStyle=orthogonalEdgeStyle;rounded=0;orthogonalLoop=1;jettySize=auto;html=1;exitX=0.5;exitY=1;exitDx=0;exitDy=0;entryX=0.5;entryY=0;entryDx=0;entryDy=0;" parent="1" source="WP8NB6TWrdv5akPsZ2qc-5" target="WP8NB6TWrdv5akPsZ2qc-1" edge="1">
          <mxGeometry relative="1" as="geometry" />
        </mxCell>
        <mxCell id="WP8NB6TWrdv5akPsZ2qc-14" style="edgeStyle=orthogonalEdgeStyle;rounded=0;orthogonalLoop=1;jettySize=auto;html=1;exitX=1;exitY=0.75;exitDx=0;exitDy=0;entryX=0.009;entryY=0.303;entryDx=0;entryDy=0;entryPerimeter=0;" parent="1" source="WP8NB6TWrdv5akPsZ2qc-5" target="WP8NB6TWrdv5akPsZ2qc-8" edge="1">
          <mxGeometry relative="1" as="geometry">
            <mxPoint x="380" y="590" as="targetPoint" />
            <Array as="points">
              <mxPoint x="440" y="345" />
              <mxPoint x="440" y="622" />
            </Array>
          </mxGeometry>
        </mxCell>
        <mxCell id="WP8NB6TWrdv5akPsZ2qc-5" value="&lt;font style=&quot;line-height: 140% ; font-size: 22px&quot; color=&quot;#ffff00&quot;&gt;&lt;b&gt;PEM&lt;/b&gt;&lt;/font&gt;" style="rounded=0;whiteSpace=wrap;html=1;strokeColor=#36393d;fillColor=#808080;" parent="1" vertex="1">
          <mxGeometry x="150" y="240" width="140" height="140" as="geometry" />
        </mxCell>
        <mxCell id="WP8NB6TWrdv5akPsZ2qc-12" style="edgeStyle=orthogonalEdgeStyle;rounded=0;orthogonalLoop=1;jettySize=auto;html=1;exitX=0.5;exitY=0;exitDx=0;exitDy=0;entryX=0.5;entryY=1;entryDx=0;entryDy=0;" parent="1" source="WP8NB6TWrdv5akPsZ2qc-6" target="WP8NB6TWrdv5akPsZ2qc-1" edge="1">
          <mxGeometry relative="1" as="geometry" />
        </mxCell>
        <mxCell id="WP8NB6TWrdv5akPsZ2qc-15" style="edgeStyle=orthogonalEdgeStyle;rounded=0;orthogonalLoop=1;jettySize=auto;html=1;exitX=1;exitY=0.25;exitDx=0;exitDy=0;entryX=0.014;entryY=0.56;entryDx=0;entryDy=0;entryPerimeter=0;" parent="1" source="WP8NB6TWrdv5akPsZ2qc-6" target="WP8NB6TWrdv5akPsZ2qc-7" edge="1">
          <mxGeometry relative="1" as="geometry">
            <Array as="points">
              <mxPoint x="390" y="665" />
              <mxPoint x="390" y="380" />
              <mxPoint x="520" y="380" />
              <mxPoint x="520" y="378" />
            </Array>
          </mxGeometry>
        </mxCell>
        <mxCell id="WP8NB6TWrdv5akPsZ2qc-18" style="edgeStyle=orthogonalEdgeStyle;rounded=0;orthogonalLoop=1;jettySize=auto;html=1;exitX=1;exitY=0.75;exitDx=0;exitDy=0;entryX=-0.006;entryY=0.697;entryDx=0;entryDy=0;entryPerimeter=0;" parent="1" source="WP8NB6TWrdv5akPsZ2qc-6" target="WP8NB6TWrdv5akPsZ2qc-8" edge="1">
          <mxGeometry relative="1" as="geometry">
            <Array as="points">
              <mxPoint x="480" y="735" />
              <mxPoint x="480" y="678" />
            </Array>
          </mxGeometry>
        </mxCell>
        <mxCell id="WP8NB6TWrdv5akPsZ2qc-6" value="&lt;font style=&quot;line-height: 140% ; font-size: 22px&quot; color=&quot;#ffff00&quot;&gt;&lt;b&gt;Batrockets&lt;/b&gt;&lt;/font&gt;" style="rounded=0;whiteSpace=wrap;html=1;strokeColor=#36393d;fillColor=#808080;" parent="1" vertex="1">
          <mxGeometry x="150" y="630" width="140" height="140" as="geometry" />
        </mxCell>
        <mxCell id="WP8NB6TWrdv5akPsZ2qc-7" value="&lt;font style=&quot;line-height: 140% ; font-size: 22px&quot; color=&quot;#cc0000&quot;&gt;&lt;b&gt;Joker&lt;/b&gt;&lt;/font&gt;" style="rounded=0;whiteSpace=wrap;html=1;strokeColor=#36393d;fillColor=#009900;" parent="1" vertex="1">
          <mxGeometry x="520" y="300" width="140" height="140" as="geometry" />
        </mxCell>
        <mxCell id="WP8NB6TWrdv5akPsZ2qc-8" value="&lt;font style=&quot;line-height: 140% ; font-size: 22px&quot; color=&quot;#00ff00&quot;&gt;&lt;b&gt;Villano&lt;/b&gt;&lt;/font&gt;" style="rounded=0;whiteSpace=wrap;html=1;strokeColor=#36393d;fillColor=#9933FF;" parent="1" vertex="1">
          <mxGeometry x="520" y="580" width="140" height="140" as="geometry" />
        </mxCell>
      </root>
    </mxGraphModel>
  </diagram>
</mxfile>
